<svg width="38" height="38" viewBox="0 0 38 38" fill="none" xmlns="http://www.w3.org/2000/svg">
<path d="M18.1131 15.3893V11.259L11.1662 15.8828L14.2686 17.9535L18.1131 15.3893ZM27.5426 20.4992V17.5379L25.3234 19.0186L27.5426 20.4992ZM19 2.375C9.81914 2.375 2.375 9.81914 2.375 19C2.375 28.1809 9.81914 35.625 19 35.625C28.1809 35.625 35.625 28.1809 35.625 19C35.625 9.81914 28.1809 2.375 19 2.375ZM29.3164 22.1543C29.3164 22.1951 29.3127 22.2322 29.309 22.2693C29.309 22.2842 29.3053 22.2953 29.3016 22.3064C29.2963 22.347 29.2864 22.3869 29.2719 22.4252C29.2645 22.4475 29.257 22.4697 29.2496 22.4883C29.2422 22.5031 29.2348 22.518 29.2311 22.5328C29.2199 22.5514 29.2125 22.5736 29.2014 22.5922C29.1939 22.607 29.1865 22.6182 29.1754 22.633C29.1643 22.6516 29.1494 22.6701 29.1383 22.6887C29.1271 22.7035 29.1197 22.7146 29.1086 22.7258C29.0938 22.7406 29.0789 22.7592 29.0641 22.774C29.0529 22.7852 29.0418 22.7963 29.027 22.8074C29.0121 22.8223 28.9936 22.8371 28.975 22.8482C28.9602 22.8594 28.949 22.8705 28.9342 22.8779C28.9305 22.8816 28.923 22.8854 28.9193 22.8891L19.4898 29.168C19.3414 29.2682 19.1707 29.3164 19 29.3164C18.8256 29.3164 18.6549 29.2645 18.5064 29.168L9.07695 22.8928C9.07324 22.8891 9.06582 22.8854 9.06211 22.8816L9.02129 22.852C9.00273 22.8371 8.98789 22.826 8.97305 22.8111C8.96191 22.8 8.95078 22.7889 8.93594 22.7777C8.92109 22.7629 8.90625 22.748 8.89141 22.7295C8.8804 22.7181 8.87046 22.7056 8.86172 22.6924C8.84688 22.6738 8.83574 22.6553 8.82461 22.6367C8.81719 22.6219 8.80606 22.6107 8.79863 22.5959C8.7875 22.5773 8.77637 22.5551 8.76895 22.5365C8.76152 22.5217 8.7541 22.5068 8.75039 22.492C8.74297 22.4697 8.73555 22.4475 8.72813 22.4289C8.72441 22.4141 8.71699 22.3992 8.71328 22.3844C8.70586 22.3584 8.70215 22.3361 8.69844 22.3102C8.69473 22.299 8.69473 22.2842 8.69102 22.273C8.6873 22.2359 8.68359 22.1951 8.68359 22.158V15.8791C8.68359 15.842 8.6873 15.8012 8.69102 15.7641C8.69473 15.7529 8.69473 15.7381 8.69844 15.727C8.70367 15.6863 8.71364 15.6465 8.72813 15.6082C8.73555 15.5859 8.74297 15.5637 8.75039 15.5451C8.75781 15.5303 8.76523 15.5154 8.76895 15.5006C8.77637 15.482 8.7875 15.4598 8.79863 15.4412C8.80606 15.4264 8.81348 15.4152 8.82461 15.4004C8.84688 15.367 8.86914 15.3373 8.89141 15.3076C8.90625 15.2928 8.92109 15.2742 8.93594 15.2594C8.94707 15.2482 8.9582 15.2371 8.97305 15.226C8.98789 15.2111 9.00645 15.1963 9.02129 15.1852C9.03613 15.174 9.04727 15.1629 9.06211 15.1555C9.06582 15.1518 9.07324 15.148 9.07695 15.1443L18.5064 8.86914C18.8033 8.67246 19.193 8.67246 19.4898 8.86914L28.9193 15.1443C28.923 15.148 28.9305 15.1518 28.9342 15.1555L28.975 15.1852L29.027 15.226C29.0381 15.2371 29.0492 15.2482 29.0641 15.2594C29.0789 15.2742 29.0938 15.2891 29.1086 15.3076C29.1346 15.3373 29.1568 15.367 29.1754 15.4004C29.1828 15.4152 29.1939 15.4264 29.2014 15.4412C29.2125 15.4598 29.2236 15.4783 29.2311 15.5006C29.2385 15.5154 29.2459 15.5303 29.2496 15.5451C29.257 15.5674 29.2645 15.5896 29.2719 15.6082C29.2756 15.623 29.283 15.6379 29.2867 15.6527C29.2941 15.6787 29.2979 15.701 29.3016 15.727C29.3053 15.7381 29.3053 15.7529 29.309 15.7641C29.3127 15.8012 29.3164 15.842 29.3164 15.8791V22.1543ZM19.8869 22.6479V26.7781L26.8338 22.1543L23.7314 20.0836L19.8869 22.6479ZM10.4574 17.5379V20.4992L12.6766 19.0186L10.4574 17.5379ZM19 16.9256L15.8643 19.0186L19 21.1115L22.1357 19.0186L19 16.9256ZM26.8338 15.8828L19.8869 11.259V15.3893L23.7314 17.9535L26.8338 15.8828ZM14.2686 20.0836L11.1662 22.1543L18.1131 26.7781V22.6479L14.2686 20.0836Z" fill="#F4F4F4"/>
</svg>
