<svg width="33" height="33" viewBox="0 0 33 33" fill="none" xmlns="http://www.w3.org/2000/svg">
<path d="M29.6358 5.50001C29.5109 5.48714 29.385 5.48714 29.26 5.50001H3.59335C3.42885 5.50255 3.26543 5.52721 3.10751 5.57335L16.3533 18.7642L29.6358 5.50001Z" fill="#F4F4F4"/>
<path d="M30.9925 6.77417L17.6458 20.0658C17.3023 20.4073 16.8377 20.599 16.3533 20.599C15.869 20.599 15.4043 20.4073 15.0608 20.0658L1.83333 6.875C1.79267 7.02446 1.77111 7.17846 1.76917 7.33334V25.6667C1.76917 26.1529 1.96232 26.6192 2.30614 26.963C2.64995 27.3068 3.11627 27.5 3.6025 27.5H29.2692C29.7554 27.5 30.2217 27.3068 30.5655 26.963C30.9093 26.6192 31.1025 26.1529 31.1025 25.6667V7.33334C31.0952 7.14235 31.0581 6.95369 30.9925 6.77417ZM4.85833 25.6667H3.58417V24.3558L10.2483 17.7467L11.5408 19.0392L4.85833 25.6667ZM29.2508 25.6667H27.9675L21.285 19.0392L22.5775 17.7467L29.2417 24.3558L29.2508 25.6667Z" fill="#F4F4F4"/>
</svg>
