<svg width="32" height="32" viewBox="0 0 32 32" fill="none" xmlns="http://www.w3.org/2000/svg">
<path fill-rule="evenodd" clip-rule="evenodd" d="M1.33333 3.78398C1.33333 3.13403 1.59152 2.51069 2.05111 2.0511C2.5107 1.59151 3.13404 1.33332 3.784 1.33332H28.2133C28.5354 1.33279 28.8545 1.3958 29.1522 1.51874C29.4499 1.64168 29.7204 1.82213 29.9483 2.04976C30.1762 2.2774 30.357 2.54775 30.4802 2.84533C30.6035 3.14291 30.6668 3.46188 30.6667 3.78398V28.2133C30.667 28.5355 30.6038 28.8545 30.4808 29.1523C30.3577 29.45 30.1771 29.7205 29.9494 29.9484C29.7216 30.1763 29.4512 30.357 29.1535 30.4802C28.8559 30.6035 28.5368 30.6668 28.2147 30.6666H3.784C3.46206 30.6666 3.14327 30.6032 2.84586 30.48C2.54844 30.3567 2.27822 30.1761 2.05064 29.9484C1.82306 29.7207 1.64257 29.4504 1.51949 29.1529C1.39641 28.8554 1.33315 28.5366 1.33333 28.2146V3.78398ZM12.944 12.5173H16.916V14.512C17.4893 13.3653 18.956 12.3333 21.16 12.3333C25.3853 12.3333 26.3867 14.6173 26.3867 18.808V26.5706H22.1107V19.7626C22.1107 17.376 21.5373 16.0293 20.0813 16.0293C18.0613 16.0293 17.2213 17.4813 17.2213 19.7626V26.5706H12.944V12.5173ZM5.61066 26.388H9.888V12.3333H5.61066V26.3867V26.388ZM10.5 7.74932C10.5081 8.11555 10.4429 8.4797 10.3083 8.8204C10.1737 9.16111 9.97246 9.4715 9.7163 9.73336C9.46014 9.99522 9.15426 10.2033 8.8166 10.3453C8.47894 10.4874 8.11631 10.5605 7.75 10.5605C7.38368 10.5605 7.02105 10.4874 6.68339 10.3453C6.34573 10.2033 6.03985 9.99522 5.78369 9.73336C5.52753 9.4715 5.32625 9.16111 5.19168 8.8204C5.0571 8.4797 4.99193 8.11555 5 7.74932C5.01583 7.03046 5.31251 6.34637 5.82651 5.84356C6.34051 5.34076 7.03096 5.05921 7.75 5.05921C8.46903 5.05921 9.15948 5.34076 9.67348 5.84356C10.1875 6.34637 10.4842 7.03046 10.5 7.74932Z" fill="#F4F4F4"/>
</svg>
