<svg width="40" height="40" viewBox="0 0 40 40" fill="none" xmlns="http://www.w3.org/2000/svg">
<rect width="40" height="40" rx="5" fill="#F4F4F4"/>
<path d="M21.7392 13.0731C22.2915 13.0731 22.7392 13.5208 22.7392 14.0731V25.6667C22.7392 26.219 22.2915 26.6667 21.7392 26.6667H19.3845C18.8938 26.6667 18.496 26.2689 18.496 25.7782C18.496 24.7588 17.0593 24.5421 16.7585 25.5161L16.6129 25.9878C16.4882 26.3914 16.1151 26.6667 15.6927 26.6667H13.4657C13.0433 26.6667 12.6702 26.3914 12.5456 25.9878L12.3999 25.5161C12.0992 24.5421 10.6624 24.7588 10.6624 25.7782C10.6624 26.2689 10.2646 26.6667 9.7739 26.6667H7.40002C6.84774 26.6667 6.40002 26.219 6.40002 25.6667V14.0731C6.40002 13.5208 6.84774 13.0731 7.40002 13.0731H10.9242C11.3436 13.0731 11.7185 13.3348 11.863 13.7285L13.6667 18.6423C13.9889 19.5201 15.2321 19.5149 15.547 18.6345L17.2988 13.7364C17.4411 13.3386 17.818 13.0731 18.2404 13.0731H21.7392Z" fill="#191F26"/>
<path d="M21.8666 19.8667C21.8666 18.5444 22.1414 17.367 22.6909 16.3344C23.2535 15.3018 24.0515 14.5022 25.0851 13.9355C26.1187 13.3563 27.3354 13.0667 28.7353 13.0667C29.939 13.0667 31.0118 13.287 31.9538 13.7278C32.9089 14.1559 33.6808 14.7667 34.2695 15.56C34.6405 16.049 34.9344 16.5882 35.1512 17.1776C35.3672 17.7645 34.8894 18.3366 34.264 18.3366H31.5065C31.1205 18.3366 30.7841 18.1007 30.5371 17.804C30.3765 17.6109 30.188 17.4485 29.9717 17.3166C29.5923 17.0648 29.154 16.9389 28.6568 16.9389C27.9242 16.9389 27.342 17.2033 26.9102 17.7322C26.4916 18.2611 26.2822 18.9726 26.2822 19.8667C26.2822 20.7607 26.4916 21.4722 26.9102 22.0011C27.342 22.53 27.9242 22.7944 28.6568 22.7944C29.154 22.7944 29.5923 22.6748 29.9717 22.4355C30.1889 22.2962 30.378 22.1279 30.5391 21.9307C30.7834 21.6317 31.1205 21.3966 31.5065 21.3966H34.264C34.8894 21.3966 35.3672 21.9688 35.1512 22.5557C34.9344 23.1451 34.6405 23.6843 34.2695 24.1733C33.6808 24.9666 32.9089 25.5837 31.9538 26.0244C31.0118 26.4526 29.939 26.6666 28.7353 26.6666C27.3354 26.6666 26.1187 26.3833 25.0851 25.8166C24.0515 25.2374 23.2535 24.4315 22.6909 23.3989C22.1414 22.3663 21.8666 21.1889 21.8666 19.8667Z" fill="#191F26"/>
</svg>
