<svg width="32" height="32" fill="#F4F4F4" version="1.1" viewBox="0 0 300 300" xml:space="preserve" xmlns="http://www.w3.org/2000/svg">
  <path d="m14.492 208.9c0.619 0 1.143-0.509 1.232-1.226l3.365-26.671-3.355-27.278c-0.1-0.717-0.623-1.23-1.242-1.23-0.635 0-1.176 0.524-1.26 1.23l-2.941 27.278 2.941 26.662c0.084 0.716 0.625 1.235 1.26 1.235z"/>
  <path d="m3.397 198.75c0.608 0 1.101-0.473 1.19-1.18l2.608-16.574-2.608-16.884c-0.09-0.685-0.582-1.18-1.19-1.18-0.635 0-1.127 0.495-1.217 1.19l-2.18 16.875 2.18 16.569c0.09 0.701 0.582 1.184 1.217 1.184z"/>
  <path d="m27.762 148.64c-0.08-0.867-0.715-1.5-1.503-1.5-0.782 0-1.418 0.633-1.491 1.5l-2.811 32.355 2.811 31.174c0.073 0.862 0.709 1.487 1.491 1.487 0.788 0 1.423-0.625 1.503-1.487l3.18-31.174-3.18-32.355z"/>
  <path d="m38.152 214.92c0.922 0 1.668-0.759 1.758-1.751l3.005-32.156-3.005-33.258c-0.09-0.999-0.836-1.749-1.758-1.749-0.935 0-1.692 0.751-1.756 1.754l-2.656 33.253 2.656 32.156c0.064 0.993 0.821 1.751 1.756 1.751z"/>
  <path d="m50.127 215.44c1.074 0 1.936-0.86 2.025-2.011l-0.01 8e-3 2.83-32.426-2.83-30.857c-0.08-1.132-0.941-2.005-2.016-2.005-1.09 0-1.947 0.873-2.012 2.014l-2.502 30.849 2.502 32.418c0.066 1.15 0.923 2.01 2.013 2.01z"/>
  <path d="m67.132 181.02-2.655-50.172c-0.074-1.272-1.065-2.286-2.281-2.286-1.207 0-2.195 1.013-2.269 2.286l-2.35 50.172 2.35 32.418c0.074 1.278 1.063 2.278 2.269 2.278 1.217 0 2.207-1 2.281-2.278v9e-3l2.655-32.427z"/>
  <path d="m74.386 215.77c1.339 0 2.45-1.111 2.513-2.529v0.021l2.482-32.233-2.482-61.656c-0.063-1.418-1.174-2.529-2.513-2.529-1.37 0-2.471 1.111-2.545 2.529l-2.185 61.656 2.195 32.222c0.064 1.408 1.165 2.519 2.535 2.519z"/>
  <path d="m86.645 111.44c-1.508 0-2.725 1.238-2.787 2.799l-2.033 66.801 2.033 31.884c0.063 1.553 1.279 2.783 2.787 2.783 1.504 0 2.73-1.22 2.783-2.788v0.016l2.307-31.895-2.307-66.801c-0.053-1.571-1.28-2.799-2.783-2.799z"/>
  <path d="m99.01 215.77c1.656 0 2.975-1.336 3.037-3.056v0.019l2.133-31.693-2.133-69.045c-0.063-1.714-1.381-3.056-3.037-3.056-1.666 0-3.005 1.342-3.031 3.056l-1.916 69.045 1.916 31.693c0.026 1.701 1.365 3.037 3.031 3.037z"/>
  <path d="m111.48 215.73c1.787 0 3.237-1.463 3.291-3.318v0.029l1.963-31.404-1.963-67.289c-0.054-1.854-1.504-3.311-3.291-3.311-1.8 0-3.25 1.456-3.303 3.311l-1.725 67.289 1.736 31.389c0.042 1.841 1.492 3.304 3.292 3.304z"/>
  <path d="m129.36 181.04-1.777-64.836c-0.043-2-1.609-3.571-3.551-3.571-1.947 0-3.514 1.571-3.555 3.584l-1.594 64.823 1.594 31.198c0.041 1.984 1.607 3.556 3.555 3.556 1.941 0 3.508-1.572 3.551-3.585v0.029l1.777-31.198z"/>
  <path d="m136.68 215.85c2.064 0 3.773-1.717 3.805-3.828v0.017l1.613-30.984-1.613-77.153c-0.031-2.119-1.74-3.833-3.805-3.833-2.063 0-3.767 1.722-3.809 3.844l-1.434 77.111 1.434 31.016c0.042 2.093 1.746 3.81 3.809 3.81z"/>
  <path d="m149.29 92.814c-2.229 0-4.037 1.849-4.074 4.103l-1.667 84.151 1.677 30.526c0.027 2.225 1.836 4.068 4.064 4.068 2.195 0 4.037-1.844 4.047-4.105v0.037l1.82-30.526-1.82-84.151c-0.01-2.262-1.852-4.103-4.047-4.103z"/>
  <path d="m160.82 215.88c0.09 8e-3 101.62 0.056 102.28 0.056 20.385 0 36.904-16.722 36.904-37.357 0-20.624-16.52-37.349-36.904-37.349-5.059 0-9.879 1.034-14.275 2.907-2.922-33.671-30.815-60.077-64.842-60.077-8.318 0-16.429 1.662-23.593 4.469-2.788 1.09-3.534 2.214-3.556 4.392v118.54c0.032 2.29 1.778 4.193 3.991 4.42z"/>
</svg>
